<?xml version="1.0" encoding="iso-8859-1"?>
<!-- Generator: Adobe Illustrator 19.0.0, SVG Export Plug-In . SVG Version: 6.00 Build 0)  -->
<svg version="1.1" id="Capa_1" xmlns="http://www.w3.org/2000/svg" xmlns:xlink="http://www.w3.org/1999/xlink" x="0px" y="0px"
	 viewBox="0 0 512 512" style="enable-background:new 0 0 512 512;" xml:space="preserve">
<g>
	<g>
		<path d="M64.06,87.327c-5.523,0-10,4.477-10,10c0,5.523,4.477,10,10,10h0.099c5.523,0,9.951-4.477,9.951-10
			C74.11,91.804,69.583,87.327,64.06,87.327z"/>
	</g>
</g>
<g>
	<g>
		<path d="M112.01,87.327c-5.523,0-10,4.477-10,10c0,5.523,4.477,10,10,10h0.099c5.523,0,9.951-4.477,9.951-10
			C122.06,91.804,117.533,87.327,112.01,87.327z"/>
	</g>
</g>
<g>
	<g>
		<path d="M159.961,87.327c-5.523,0-10,4.477-10,10c0,5.523,4.477,10,10,10h0.099c5.523,0,9.95-4.477,9.95-10
			C170.01,91.804,165.484,87.327,159.961,87.327z"/>
	</g>
</g>
<g>
	<g>
		<path d="M342.13,133c-1.86-1.86-4.43-2.93-7.07-2.93c-2.63,0-5.21,1.07-7.07,2.93c-1.86,1.86-2.93,4.44-2.93,7.07
			s1.07,5.21,2.93,7.07s4.44,2.93,7.07,2.93s5.21-1.07,7.07-2.93s2.93-4.44,2.93-7.07S343.99,134.86,342.13,133z"/>
	</g>
</g>
<g>
	<g>
		<path d="M394.06,87.327H276.063c-5.523,0-10,4.477-10,10c0,5.523,4.477,10,10,10H394.06c5.523,0,10-4.477,10-10
			C404.06,91.804,399.583,87.327,394.06,87.327z"/>
	</g>
</g>
<g>
	<g>
		<path d="M65.07,325.93C63.21,324.07,60.63,323,58,323s-5.21,1.069-7.07,2.93C49.07,327.79,48,330.37,48,333s1.07,5.21,2.93,7.069
			C52.79,341.93,55.37,343,58,343s5.21-1.07,7.07-2.931C66.93,338.21,68,335.63,68,333S66.93,327.79,65.07,325.93z"/>
	</g>
</g>
<g>
	<g>
		<path d="M459.653,184h-1.593V52c0-5.523-4.477-10-10-10H10C4.477,42,0,46.477,0,52v408c0,5.522,4.477,10,10,10h438.06
			c5.523,0,10-4.478,10-10v-84h1.593C488.518,376,512,352.518,512,323.653v-87.307C512,207.482,488.518,184,459.653,184z
			 M438.06,450H68v-70c0-5.522-4.477-10-10-10s-10,4.478-10,10v70H20V150.07h271.727c5.523,0,10-4.477,10-10s-4.477-10-10-10H20V62
			h418.06v68.07h-57.667c-5.523,0-10,4.477-10,10s4.477,10,10,10h57.667V184H304.347C275.482,184,252,207.482,252,236.347v110.162
			l-11.952,58.447c-0.768,3.757,0.679,7.621,3.725,9.949c1.778,1.359,3.919,2.055,6.074,2.055c1.536,0,3.08-0.354,4.504-1.072
			L333.38,376h104.68V450z M492,323.653C492,341.489,477.489,356,459.653,356H331c-1.565,0-3.108,0.367-4.506,1.072l-62.713,31.652
			l8.123-39.721c0.235-1.152,0.263-2.322,0.096-3.459V236.347C272,218.511,286.511,204,304.347,204h155.307
			C477.489,204,492,218.511,492,236.347V323.653z"/>
	</g>
</g>
<g>
	<g>
		<path d="M382,219.377c-20.953,0-38,17.047-38,38c0,5.522,4.477,10,10,10s10-4.478,10-10c0-9.925,8.075-18,18-18s18,8.075,18,18
			s-8.075,18-18,18c-5.523,0-10,4.478-10,10V298c0,5.522,4.477,10,10,10s10-4.478,10-10v-3.958c16.118-4.4,28-19.171,28-36.665
			C420,236.424,402.953,219.377,382,219.377z"/>
	</g>
</g>
<g>
	<g>
		<path d="M389.07,325.93c-1.86-1.86-4.44-2.93-7.07-2.93s-5.21,1.069-7.07,2.93c-1.86,1.86-2.93,4.44-2.93,7.07
			s1.07,5.21,2.93,7.069c1.86,1.86,4.44,2.931,7.07,2.931s5.21-1.07,7.07-2.931c1.86-1.859,2.93-4.439,2.93-7.069
			S390.93,327.79,389.07,325.93z"/>
	</g>
</g>
<g>
	<g>
		<path d="M218.811,196.151H108c-5.523,0-10,4.477-10,10s4.477,10,10,10h110.811c5.523,0,10-4.477,10-10
			S224.334,196.151,218.811,196.151z"/>
	</g>
</g>
<g>
	<g>
		<path d="M174.809,242.604H108c-5.523,0-10,4.477-10,10s4.477,10,10,10h66.809c5.523,0,10-4.478,10-10
			C184.809,247.082,180.332,242.604,174.809,242.604z"/>
	</g>
</g>
<g>
	<g>
		<path d="M218.811,297H108c-5.523,0-10,4.478-10,10c0,5.522,4.477,10,10,10h110.811c5.523,0,10-4.478,10-10
			C228.811,301.478,224.334,297,218.811,297z"/>
	</g>
</g>
<g>
	<g>
		<path d="M174.809,343.452H108c-5.523,0-10,4.478-10,10c0,5.522,4.477,10,10,10h66.809c5.523,0,10-4.478,10-10
			C184.809,347.93,180.332,343.452,174.809,343.452z"/>
	</g>
</g>
<g>
</g>
<g>
</g>
<g>
</g>
<g>
</g>
<g>
</g>
<g>
</g>
<g>
</g>
<g>
</g>
<g>
</g>
<g>
</g>
<g>
</g>
<g>
</g>
<g>
</g>
<g>
</g>
<g>
</g>
</svg>
